# Blender 4.2.2 LTS
# www.blender.org
mtllib Floor.mtl
o 1
v 56.826221 168.880890 861.793701
v 53.763428 168.880875 861.793701
v 56.770763 -167.117188 861.793701
v 53.763439 -167.117188 861.793701
v 56.760376 168.880905 -194.206039
v 53.763428 168.880920 -194.206070
v 53.763439 -167.117172 -194.206039
v 56.758228 -167.117172 -194.206009
vn -0.0000 -1.0000 -0.0000
vn -0.0000 -0.0000 -1.0000
vn -1.0000 -0.0000 -0.0000
vn -0.0000 -0.0000 1.0000
vn -0.0000 1.0000 -0.0000
vt 0.510230 3.496826
vt 0.493161 3.496826
vt 0.493161 -2.496827
vt 0.510159 -2.496827
vt 0.510172 1.453531
vt 0.510159 -0.453530
vt 0.493161 -0.453530
vt 0.493162 1.453531
vt -0.453523 3.496826
vt 1.453537 3.496826
vt 1.453538 -2.496827
vt -0.453522 -2.496827
vt 0.493161 -0.453531
vt 0.510230 -0.453531
vt 0.510545 1.453530
vt 0.493162 1.453530
vt 0.510172 -2.496827
vt 0.493162 -2.496827
vt 0.493162 3.496826
vt 0.510545 3.496826
s 0
usemtl Ceramic_tiles_with_pink_hearts
f 3/1/1 4/2/1 7/3/1 8/4/1
f 5/5/2 8/6/2 7/7/2 6/8/2
f 4/9/3 2/10/3 6/11/3 7/12/3
f 4/13/4 3/14/4 1/15/4 2/16/4
f 5/17/5 6/18/5 2/19/5 1/20/5
o 2
v 56.736797 -167.117172 357.324738
v 56.771145 -167.117188 577.174561
v 53.763451 -422.669342 356.995453
v 53.763451 -422.952759 576.845276
v 53.763439 -167.117188 577.175049
v 53.763439 -167.117172 357.325226
v 56.778324 -422.668854 356.994995
v 56.812668 -422.952271 576.844849
vn 0.0002 -0.0013 1.0000
vn -0.0000 1.0000 -0.0000
vn -0.0002 0.0013 -1.0000
vn 0.0002 -1.0000 -0.0013
vn -1.0000 -0.0000 -0.0000
vn 1.0000 0.0002 -0.0002
vt -0.281261 0.391172
vt 1.171522 0.391172
vt 1.171522 0.374133
vt -0.281261 0.374133
vt 0.436611 -0.241672
vt 0.436611 1.006977
vt 0.453649 1.006977
vt 0.453649 -0.241672
vt -0.281262 1.006977
vt 1.171522 1.006977
vt 1.171522 -0.241672
vt -0.281262 -0.241672
s 0
usemtl Ceramic_tiles_with_pink_hearts
f 16/21/6 10/22/6 13/23/6
f 16/21/6 13/23/6 12/24/6
f 10/25/7 9/26/7 14/27/7
f 10/25/7 14/27/7 13/28/7
f 9/23/8 15/24/8 11/21/8
f 9/23/8 11/21/8 14/22/8
f 15/27/9 16/28/9 12/25/9
f 15/27/9 12/25/9 11/26/9
f 12/29/10 13/30/10 14/31/10
f 12/29/10 14/31/10 11/32/10
f 15/29/11 9/30/11 10/31/11
f 15/29/11 10/31/11 16/32/11
o 3
v 56.745850 -423.402222 846.071045
v 53.763439 -167.109451 846.070984
v 56.745819 -167.109451 846.070984
v 56.745850 -423.402222 846.071045
v 53.763451 -423.402222 846.071045
v 53.763439 -167.109451 846.070984
v 56.745819 -167.109451 846.070984
v 53.763439 -167.109467 589.011047
v 56.745819 -167.109467 589.011047
v 56.745819 -167.109451 846.070984
v 53.763439 -167.109451 846.070984
v 53.763439 -167.109467 589.011047
v 56.745819 -167.109467 589.011047
v 53.763451 -423.402252 589.011108
v 56.745850 -423.402252 589.011108
v 56.745819 -167.109467 589.011047
v 53.763439 -167.109467 589.011047
v 53.763451 -423.402252 589.011108
v 56.745850 -423.402252 589.011108
v 53.763451 -423.402222 846.071045
v 56.745850 -423.402222 846.071045
v 56.745850 -423.402252 589.011108
v 53.763451 -423.402252 589.011108
v 53.763451 -423.402222 846.071045
v 53.763451 -423.402222 846.071045
v 53.763439 -167.109467 589.011047
v 53.763439 -167.109451 846.070984
v 53.763451 -423.402222 846.071045
v 53.763451 -423.402252 589.011108
v 53.763439 -167.109467 589.011047
v 56.745850 -423.402252 589.011108
v 56.745819 -167.109451 846.070984
v 56.745819 -167.109467 589.011047
v 56.745850 -423.402252 589.011108
v 56.745850 -423.402222 846.071045
v 56.745819 -167.109451 846.070984
vn -0.0000 -0.0000 1.0000
vn -0.0000 1.0000 -0.0000
vn -0.0000 -0.0000 -1.0000
vn -0.0000 -1.0000 -0.0000
vn -1.0000 -0.0000 -0.0000
vn 1.0000 -0.0000 -0.0000
vt 0.512293 -0.554554
vt 0.512293 1.554313
vt 0.487753 1.554313
vt 0.487753 -0.554554
vt 0.512293 1.557467
vt 0.512293 -0.557711
vt 0.487753 -0.557711
vt 0.487753 1.557467
vt 0.487753 1.557467
vt 0.487753 -0.557711
vt -0.554410 1.557467
vt 1.554456 1.557467
vt 1.554456 -0.557711
vt -0.554410 -0.557711
s 0
usemtl Hexa_Wood_Tile_dark
f 17/33/12 19/34/12 18/35/12
f 20/33/12 22/35/12 21/36/12
f 23/37/13 25/38/13 24/39/13
f 26/37/13 28/39/13 27/40/13
f 29/34/14 31/33/14 30/36/14
f 32/34/14 34/36/14 33/35/14
f 35/38/15 37/37/15 36/41/15
f 38/38/15 40/41/15 39/42/15
f 41/43/16 43/44/16 42/45/16
f 44/43/16 46/45/16 45/46/16
f 47/46/17 49/45/17 48/44/17
f 50/46/17 52/44/17 51/43/17
o 4
v 53.763412 438.006653 848.699036
v 53.763428 168.880936 848.699097
v 53.763412 438.006622 586.959045
v 53.763428 168.880951 586.959106
v 56.815845 438.006653 848.699036
v 56.815845 438.006622 586.959045
v 56.815880 168.880951 586.959106
v 56.815880 168.880936 848.699097
vn -0.0000 -0.0000 1.0000
vn -0.0000 1.0000 -0.0000
vn -0.0000 -0.0000 -1.0000
vn -0.0000 -1.0000 -0.0000
vn -1.0000 -0.0000 -0.0000
vn 1.0000 -0.0000 -0.0000
vt 0.475594 2.646973
vt 0.475594 -1.647080
vt 0.524297 -1.647080
vt 0.524298 2.646973
vt 0.475594 -1.588161
vt 0.475594 2.588052
vt 0.524297 2.588052
vt 0.524297 -1.588161
vt 0.524298 -1.588161
vt 0.524298 2.588052
vt 2.646973 -1.588161
vt -1.647080 -1.588161
vt -1.647080 2.588052
vt 2.646973 2.588052
s 0
usemtl Red_Carpet
f 60/47/18 57/48/18 53/49/18
f 60/47/18 53/49/18 54/50/18
f 57/51/19 58/52/19 55/53/19
f 57/51/19 55/53/19 53/54/19
f 58/48/20 59/47/20 56/50/20
f 58/48/20 56/50/20 55/49/20
f 59/52/21 60/51/21 54/55/21
f 59/52/21 54/55/21 56/56/21
f 54/57/22 53/58/22 55/59/22
f 54/57/22 55/59/22 56/60/22
f 59/60/23 58/59/23 57/58/23
f 59/60/23 57/58/23 60/57/23
