# Blender 4.2.2 LTS
# www.blender.org
mtllib Floor3.mtl
o F1
v 56.826221 168.880890 861.793701
v 53.763428 168.880875 861.793701
v 56.770763 -167.117188 861.793701
v 53.763439 -167.117188 861.793701
v 56.760376 168.880905 -194.206039
v 53.763428 168.880920 -194.206070
v 53.763439 -167.117172 -194.206039
v 56.758228 -167.117172 -194.206009
v 56.736797 -167.117172 357.324738
v 56.771145 -167.117188 577.174561
v 53.763451 -422.669342 356.995453
v 53.763451 -422.952759 576.845276
v 53.763439 -167.117188 577.175049
v 53.763439 -167.117172 357.325226
v 56.778324 -422.668854 356.994995
v 56.812668 -422.952271 576.844849
v 56.745850 -423.402222 846.071045
v 53.763439 -167.109451 846.070984
v 56.745819 -167.109451 846.070984
v 56.745850 -423.402222 846.071045
v 53.763451 -423.402222 846.071045
v 53.763439 -167.109451 846.070984
v 56.745819 -167.109451 846.070984
v 53.763439 -167.109467 589.011047
v 56.745819 -167.109467 589.011047
v 56.745819 -167.109451 846.070984
v 53.763439 -167.109451 846.070984
v 53.763439 -167.109467 589.011047
v 56.745819 -167.109467 589.011047
v 53.763451 -423.402252 589.011108
v 56.745850 -423.402252 589.011108
v 56.745819 -167.109467 589.011047
v 53.763439 -167.109467 589.011047
v 53.763451 -423.402252 589.011108
v 56.745850 -423.402252 589.011108
v 53.763451 -423.402222 846.071045
v 56.745850 -423.402222 846.071045
v 56.745850 -423.402252 589.011108
v 53.763451 -423.402252 589.011108
v 53.763451 -423.402222 846.071045
v 53.763451 -423.402222 846.071045
v 53.763439 -167.109467 589.011047
v 53.763439 -167.109451 846.070984
v 53.763451 -423.402222 846.071045
v 53.763451 -423.402252 589.011108
v 53.763439 -167.109467 589.011047
v 56.745850 -423.402252 589.011108
v 56.745819 -167.109451 846.070984
v 56.745819 -167.109467 589.011047
v 56.745850 -423.402252 589.011108
v 56.745850 -423.402222 846.071045
v 56.745819 -167.109451 846.070984
vn -0.0000 -1.0000 -0.0000
vn -0.0000 -0.0000 -1.0000
vn -1.0000 -0.0000 -0.0000
vn -0.0000 -0.0000 1.0000
vn -0.0000 1.0000 -0.0000
vn 0.0002 -0.0013 1.0000
vn -0.0002 0.0013 -1.0000
vn 0.0002 -1.0000 -0.0013
vn 1.0000 0.0002 -0.0002
vn 1.0000 -0.0000 -0.0000
vt -0.209154 3.747940
vt -0.230544 3.747940
vt -0.230544 -3.762951
vt -0.209243 -3.762951
vt -0.209227 4.451409
vt -0.209243 2.061593
vt -0.230544 2.061593
vt -0.230543 4.451409
vt 0.327138 3.747940
vt 2.716954 3.747940
vt 2.716955 -3.762951
vt 0.327139 -3.762951
vt -0.209154 2.061593
vt -0.208759 4.451409
vt -0.209227 -3.762951
vt -0.230543 -3.762951
vt -0.230543 3.747940
vt -0.208759 3.747940
vt -0.208856 0.241943
vt -0.209151 2.061593
vt -0.230544 0.241939
vt -0.209151 1.723561
vt -0.209396 0.159860
vt -0.230544 0.159863
vt -0.230544 1.723564
vt -0.209396 2.061593
vt -0.209100 0.243959
vt -0.230544 0.243955
vt -0.209100 0.157514
vt -0.208856 1.721215
vt -0.230544 1.721218
vt -0.230544 0.157517
vt -1.492515 1.721218
vt 0.327138 1.723564
vt 0.327138 0.159863
vt -1.490499 0.157517
vt -1.490496 0.157514
vt 0.327138 0.159860
vt 0.327138 1.723561
vt -1.492512 1.721215
vt -0.209331 0.238742
vt -0.209331 2.061647
vt -0.230544 2.061647
vt -0.230544 0.238742
vt -0.209331 3.636111
vt -0.209331 1.807749
vt -0.230544 1.807749
vt -0.230544 3.636111
vt -1.495712 3.636111
vt 0.327193 3.636111
vt 0.327193 1.807749
vt -1.495712 1.807749
s 0
usemtl Hexa_Wood_Tile_dark
f 3/1/1 4/2/1 7/3/1 8/4/1
f 5/5/2 8/6/2 7/7/2 6/8/2
f 4/9/3 2/10/3 6/11/3 7/12/3
f 4/7/4 3/13/4 1/14/4 2/8/4
f 5/15/5 6/16/5 2/17/5 1/18/5
f 16/19/6 10/20/6 13/7/6
f 16/19/6 13/7/6 12/21/6
f 10/22/5 9/23/5 14/24/5
f 10/22/5 14/24/5 13/25/5
f 9/26/7 15/27/7 11/28/7
f 9/26/7 11/28/7 14/7/7
f 15/29/8 16/30/8 12/31/8
f 15/29/8 12/31/8 11/32/8
f 12/33/3 13/34/3 14/35/3
f 12/33/3 14/35/3 11/36/3
f 15/37/9 9/38/9 10/39/9
f 15/37/9 10/39/9 16/40/9
f 17/41/4 19/42/4 18/43/4
f 20/41/4 22/43/4 21/44/4
f 23/45/5 25/46/5 24/47/5
f 26/45/5 28/47/5 27/48/5
f 29/42/2 31/41/2 30/44/2
f 32/42/2 34/44/2 33/43/2
f 35/46/1 37/45/1 36/48/1
f 38/46/1 40/48/1 39/47/1
f 41/49/3 43/50/3 42/51/3
f 44/49/3 46/51/3 45/52/3
f 47/52/10 49/51/10 48/50/10
f 50/52/10 52/50/10 51/49/10
o F2
v 53.763412 438.006653 848.699036
v 53.763428 168.880936 848.699097
v 53.763412 438.006622 586.959045
v 53.763428 168.880951 586.959106
v 56.815845 438.006653 848.699036
v 56.815845 438.006622 586.959045
v 56.815880 168.880951 586.959106
v 56.815880 168.880936 848.699097
vn -0.0000 -0.0000 1.0000
vn -0.0000 1.0000 -0.0000
vn -0.0000 -0.0000 -1.0000
vn -0.0000 -1.0000 -0.0000
vn -1.0000 -0.0000 -0.0000
vn 1.0000 -0.0000 -0.0000
vt 0.475594 2.646973
vt 0.475594 -1.647080
vt 0.524297 -1.647080
vt 0.524298 2.646973
vt 0.475594 -1.588161
vt 0.475594 2.588052
vt 0.524297 2.588052
vt 0.524297 -1.588161
vt 0.524298 -1.588161
vt 0.524298 2.588052
vt 2.646973 -1.588161
vt -1.647080 -1.588161
vt -1.647080 2.588052
vt 2.646973 2.588052
s 0
usemtl Red_Carpet
f 60/53/11 57/54/11 53/55/11
f 60/53/11 53/55/11 54/56/11
f 57/57/12 58/58/12 55/59/12
f 57/57/12 55/59/12 53/60/12
f 58/54/13 59/53/13 56/56/13
f 58/54/13 56/56/13 55/55/13
f 59/58/14 60/57/14 54/61/14
f 59/58/14 54/61/14 56/62/14
f 54/63/15 53/64/15 55/65/15
f 54/63/15 55/65/15 56/66/15
f 59/66/16 58/65/16 57/64/16
f 59/66/16 57/64/16 60/63/16
