# Blender 4.1.1
# www.blender.org
mtllib test.mtl
o Stone
v -1.406904 1.998427 0.274421
v -0.887796 1.998427 -0.244687
v -1.406904 1.998427 -0.244687
v -0.887796 1.998427 0.274421
v -1.406904 0.000000 -0.244687
v -1.406904 0.000000 0.274421
v -0.887796 0.000000 0.274421
v -0.887796 0.000000 -0.244687
v 0.906853 0.193390 -0.021133
v 0.906853 0.420415 -0.021133
v 0.906853 0.193390 0.050866
v 0.906853 0.420415 0.050866
v 0.868196 0.193390 -0.021133
v 0.868196 0.420415 -0.021133
v 0.868196 0.193390 0.050866
v 0.868196 0.420415 0.050866
v -0.896322 0.193390 0.050866
v -0.896322 0.420415 0.050866
v -0.896322 0.193390 -0.021132
v -0.896322 0.420415 -0.021132
v -0.857666 0.193390 0.050866
v -0.857666 0.420415 0.050866
v -0.857666 0.193390 -0.021132
v -0.857666 0.420415 -0.021132
v 0.906853 1.156154 -0.021133
v 0.906853 1.383179 -0.021133
v 0.906853 1.156154 0.050866
v 0.906853 1.383179 0.050866
v 0.868196 1.156154 -0.021133
v 0.868196 1.383179 -0.021133
v 0.868196 1.156154 0.050866
v 0.868196 1.383179 0.050866
v -0.896322 1.156154 0.050866
v -0.896322 1.383179 0.050866
v -0.896322 1.156154 -0.021132
v -0.896322 1.383179 -0.021132
v -0.857666 1.156154 0.050866
v -0.857666 1.383179 0.050866
v -0.857666 1.156154 -0.021132
v -0.857666 1.383179 -0.021132
v 0.880722 1.551512 0.030956
v 0.880722 1.551512 -0.001223
v -0.870191 1.551512 0.030956
v -0.870191 1.551512 -0.001223
v 0.880722 0.109749 0.030956
v 0.880722 0.109749 -0.001223
v -0.870191 0.109749 -0.001223
v -0.870191 0.109749 0.030956
v -0.002382 1.551512 0.030956
v -0.002382 1.551512 -0.001223
v 0.018113 1.551512 -0.001223
v 0.018113 1.551512 0.030956
v -0.002382 0.109749 -0.001223
v 0.018113 0.109749 0.030956
v 0.018113 0.109749 -0.001223
v -0.002382 0.109749 0.030956
v 0.930666 1.574904 0.078798
v 0.930666 1.574904 -0.049065
v -0.920135 1.574904 0.078798
v -0.920135 1.574904 -0.049065
v 0.930666 1.761797 0.078798
v 0.930666 1.761797 -0.049065
v -0.920135 1.761797 -0.049065
v -0.920135 1.761797 0.078798
v 0.886156 1.573230 0.041459
v 0.886156 1.573230 -0.011726
v -0.875625 1.573230 0.041459
v -0.875625 1.573230 -0.011725
v 0.003052 1.573230 0.041459
v 0.003052 1.573230 -0.011725
v 0.012679 1.573230 -0.011725
v 0.012679 1.573230 0.041459
v -0.875625 1.531603 0.041459
v -0.875625 1.531603 -0.011725
v 0.886156 1.531603 -0.011726
v 0.886156 1.531603 0.041459
v 0.003052 1.531603 0.041459
v 0.003052 1.531603 -0.011725
v 0.012679 1.531603 -0.011725
v 0.012679 1.531603 0.041459
v 0.888263 0.129020 0.050760
v 0.888263 0.129020 -0.021027
v -0.877733 0.129020 0.050760
v -0.877733 0.129020 -0.021027
v 0.005159 0.129020 0.050760
v 0.005159 0.129020 -0.021027
v 0.010571 0.129020 -0.021027
v 0.010571 0.129020 0.050760
v -0.877733 0.073068 0.050760
v -0.877733 0.073068 -0.021027
v 0.888263 0.073068 -0.021027
v 0.888263 0.073068 0.050760
v 0.005159 0.073068 0.050760
v 0.005159 0.073068 -0.021027
v 0.010571 0.073068 -0.021027
v 0.010571 0.073068 0.050760
v 0.886156 1.348215 0.041459
v 0.886156 1.348215 -0.011726
v -0.875625 1.348215 0.041459
v -0.875625 1.348215 -0.011725
v 0.003052 1.348215 0.041459
v 0.003052 1.348215 -0.011725
v 0.012679 1.348215 -0.011725
v 0.012679 1.348215 0.041459
v -0.875625 1.302571 0.041459
v -0.875625 1.302571 -0.011725
v 0.886156 1.302571 -0.011726
v 0.886156 1.302571 0.041459
v 0.003052 1.302571 0.041459
v 0.003052 1.302571 -0.011725
v 0.012679 1.302571 -0.011725
v 0.012679 1.302571 0.041459
v 0.886156 0.382638 0.041459
v 0.886156 0.382638 -0.011726
v -0.875625 0.382638 0.041459
v -0.875625 0.382638 -0.011725
v 0.003052 0.382638 0.041459
v 0.003052 0.382638 -0.011725
v 0.012679 0.382638 -0.011725
v 0.012679 0.382638 0.041459
v -0.875625 0.336993 0.041459
v -0.875625 0.336993 -0.011725
v 0.886156 0.336993 -0.011726
v 0.886156 0.336993 0.041459
v 0.003052 0.336993 0.041459
v 0.003052 0.336993 -0.011725
v 0.012679 0.336993 -0.011725
v 0.012679 0.336993 0.041459
v 1.450459 2.742957 -0.235038
v -1.434729 2.742957 -0.235038
v 1.450459 1.999131 -0.280843
v -1.434729 1.999131 -0.280842
v 1.450459 2.742957 0.257678
v -1.434729 2.742957 0.257678
v 1.450459 1.999131 0.303482
v -1.434729 1.999131 0.303483
v 1.450459 2.744564 -0.261141
v 1.450459 2.000739 -0.306946
v -1.434729 2.744564 -0.261141
v -1.434729 2.000739 -0.306945
v 1.450459 2.000739 0.329585
v 1.450459 2.744564 0.283781
v -1.434729 2.744564 0.283781
v -1.434729 2.000739 0.329586
v 1.397839 2.975246 0.257045
v 1.397839 2.975246 -0.227312
v 1.472433 1.999457 0.257045
v 1.472433 1.999457 -0.227312
v 1.433103 2.977942 0.257045
v 1.507698 2.002152 0.257045
v 1.433103 2.977942 -0.227312
v 1.507698 2.002152 -0.227312
v -1.384258 2.913577 0.257045
v -1.384258 2.913577 -0.227311
v -1.467003 1.999869 0.257045
v -1.467003 1.999869 -0.227311
v -1.420367 2.916847 0.257045
v -1.503112 2.003139 0.257045
v -1.420367 2.916847 -0.227311
v -1.503112 2.003139 -0.227311
v 1.735503 3.590985 0.005981
v 1.735503 3.026350 -0.541236
v -1.719772 3.590985 0.005981
v -1.719772 3.026350 -0.541235
v 1.735503 3.617646 -0.021530
v 1.735503 3.053012 -0.568746
v -1.719772 3.617646 -0.021530
v -1.719772 3.053012 -0.568746
v -1.646136 3.448737 -0.141580
v -1.646136 3.396703 -0.192009
v 1.661867 3.396703 -0.192009
v 1.661867 3.448737 -0.141581
v -1.193501 2.706354 -0.154835
v -1.263762 2.706354 -0.154835
v -1.263762 2.706354 -0.084574
v -1.193501 2.706354 -0.084574
v -1.646136 3.401048 -0.092374
v -1.646136 3.349015 -0.142803
v 1.661867 3.349015 -0.142803
v 1.661867 3.401048 -0.092375
v -1.263762 3.441223 -0.154835
v -1.263762 3.501348 -0.084574
v -1.193501 3.441223 -0.154835
v -1.193501 3.501348 -0.084574
v 1.259644 2.706354 -0.154835
v 1.189383 2.706354 -0.154835
v 1.189383 2.706354 -0.084574
v 1.259644 2.706354 -0.084574
v 1.189383 3.441223 -0.154835
v 1.189383 3.501348 -0.084574
v 1.259644 3.441223 -0.154835
v 1.259644 3.501348 -0.084574
v -0.040469 2.706354 -0.154835
v -0.110730 2.706354 -0.154835
v -0.110730 2.706354 -0.084574
v -0.040469 2.706354 -0.084574
v -0.110730 3.441223 -0.154835
v -0.110730 3.501348 -0.084574
v -0.040469 3.441223 -0.154835
v -0.040469 3.501348 -0.084574
v 1.422634 0.000000 -0.244688
v 1.422634 0.000000 0.274421
v 0.903526 0.000000 0.274421
v 0.903526 0.000000 -0.244688
v 0.903526 2.725233 -0.244688
v 1.422634 2.725233 -0.244688
v 1.422634 2.725233 0.274421
v 0.903526 2.725233 0.274421
v 1.422634 1.998427 0.274421
v 0.903526 1.998427 -0.244688
v 1.422634 1.998427 -0.244688
v 0.903526 1.998427 0.274421
v -0.887796 2.725233 0.274421
v -0.887796 2.725233 -0.244687
v -1.406904 2.725233 -0.244687
v -1.406904 2.725233 0.274421
v -0.002382 0.610365 0.030956
v -0.002382 0.541086 0.030956
v -0.002382 0.541086 -0.001223
v -0.002382 0.610365 -0.001223
v -0.870191 0.610365 0.030956
v -0.870191 0.541086 0.030956
v -0.870191 0.541086 -0.001223
v -0.870191 0.610365 -0.001223
v -0.041585 0.109749 -0.001223
v -0.041585 0.109749 0.030956
v -0.041585 1.551512 0.030956
v -0.041585 1.551512 -0.001223
v -0.041585 0.541086 0.030956
v -0.041585 0.610365 0.030956
v -0.041585 0.541086 -0.001223
v -0.041585 0.610365 -0.001223
v -0.327387 0.109749 0.030956
v -0.327387 1.551512 0.030956
v -0.327387 0.541086 0.030956
v -0.327387 0.541086 -0.001223
v -0.327387 0.109749 -0.001223
v -0.327387 1.551512 -0.001223
v -0.327387 0.610365 0.030956
v -0.327387 0.610365 -0.001223
v -0.029694 0.527975 -0.007033
v -0.029694 0.623476 -0.007033
v -0.339278 0.527975 -0.007033
v -0.339278 0.623476 -0.007033
v -0.047485 0.545087 -0.007033
v -0.047485 0.606364 -0.007033
v -0.321486 0.545087 -0.007033
v -0.321486 0.606364 -0.007033
v -0.339278 0.623476 0.037381
v -0.029694 0.623476 0.037381
v -0.029694 0.527975 0.037381
v -0.339278 0.527975 0.037381
v -0.321486 0.606364 0.037381
v -0.047485 0.606364 0.037381
v -0.047485 0.545087 0.037381
v -0.321486 0.545087 0.037381
v 0.386432 0.802352 0.049145
v -0.264282 0.802352 0.049145
v -0.264282 0.802352 0.028383
v 0.386432 0.802352 0.028383
v -0.264282 0.756708 0.049145
v 0.386432 0.756708 0.049145
v -0.264282 0.756708 0.028383
v 0.386432 0.756708 0.028383
v 0.402613 0.815737 0.061390
v 0.402613 0.815737 0.028450
v 0.402613 0.743323 0.061390
v 0.402613 0.743323 0.028450
v 0.334555 0.815737 0.028450
v 0.334555 0.815737 0.061390
v 0.334555 0.743323 0.028450
v 0.334555 0.743323 0.061390
v -0.187360 0.885213 0.057286
v -0.187360 0.885213 0.027083
v -0.187360 0.736942 0.057286
v -0.187360 0.736942 0.027083
v -0.213382 0.736942 0.027083
v -0.213382 0.885213 0.027083
v -0.213382 0.885213 0.057286
v -0.213382 0.736942 0.057286
vn -0.0000 1.0000 -0.0000
vn -0.0000 -0.0000 -1.0000
vn -0.0000 -0.0000 1.0000
vn -1.0000 -0.0000 -0.0000
vn 1.0000 -0.0000 -0.0000
vn -0.0000 -1.0000 -0.0000
vn -0.0000 -0.0615 0.9981
vn -0.0000 -0.0615 -0.9981
vn -0.0000 0.0615 -0.9981
vn -0.0000 0.0615 0.9981
vn -0.0000 0.9981 0.0615
vn -0.0000 -0.9981 0.0615
vn -0.0000 -0.9981 -0.0615
vn -0.0000 0.9981 -0.0615
vn -0.9971 -0.0762 -0.0000
vn 0.9971 0.0762 -0.0000
vn 0.0762 -0.9971 -0.0000
vn -0.0762 0.9971 -0.0000
vn 0.9959 -0.0902 -0.0000
vn -0.9959 0.0902 -0.0000
vn -0.0902 -0.9959 -0.0000
vn 0.0902 0.9959 -0.0000
vn -0.0000 0.6959 -0.7181
vn -0.0000 0.7181 0.6959
vn -0.0000 -0.7181 -0.6959
vn -0.0000 0.7598 -0.6502
vn -0.0000 -0.6959 0.7181
vt 0.135868 0.975884
vt 0.125851 0.975884
vt 0.135868 0.971820
vt 0.125851 0.971820
vt 0.122948 0.956581
vt 0.125851 0.956581
vt 0.125851 0.960645
vt 0.122948 0.960645
vt 0.138771 0.971820
vt 0.138771 0.975884
vt 0.135868 0.960645
vt 0.138771 0.960645
vt 0.122948 0.945406
vt 0.125851 0.945406
vt 0.135868 0.956581
vt 0.138771 0.956581
vt 0.662689 0.963002
vt 0.122948 0.971820
vt 0.122948 0.975884
vt 0.486141 0.964930
vt 0.138771 0.945406
vt 0.135868 0.945406
s 0
usemtl Rust_Texture
f 214/1/1 213/1/1 208/2/1 205/2/1
f 2/3/2 214/1/2 205/2/2 210/4/2
f 1/5/3 4/6/3 213/7/3 216/8/3
f 3/9/4 1/9/4 216/10/4 215/10/4
f 2/3/2 8/11/2 5/12/2 3/9/2
f 3/9/4 5/12/4 6/12/4 1/9/4
f 6/13/3 7/14/3 4/6/3 1/5/3
f 8/14/5 2/6/5 4/6/5 7/14/5
f 6/12/6 5/12/6 8/11/6 7/11/6
f 212/15/3 209/16/3 207/12/3 208/11/3
f 4/3/6 2/3/6 210/4/6 212/4/6
f 11/17/3 12/17/3 16/17/3 15/17/3
f 15/17/4 16/17/4 14/17/4 13/17/4
f 13/17/2 14/17/2 10/17/2 9/17/2
f 11/17/6 15/17/6 13/17/6 9/17/6
f 16/17/1 12/17/1 10/17/1 14/17/1
f 19/17/2 20/17/2 24/17/2 23/17/2
f 23/17/5 24/17/5 22/17/5 21/17/5
f 21/17/3 22/17/3 18/17/3 17/17/3
f 19/17/6 23/17/6 21/17/6 17/17/6
f 24/17/1 20/17/1 18/17/1 22/17/1
f 27/17/3 28/17/3 32/17/3 31/17/3
f 31/17/4 32/17/4 30/17/4 29/17/4
f 29/17/2 30/17/2 26/17/2 25/17/2
f 27/17/6 31/17/6 29/17/6 25/17/6
f 32/17/1 28/17/1 26/17/1 30/17/1
f 35/17/2 36/17/2 40/17/2 39/17/2
f 39/17/5 40/17/5 38/17/5 37/17/5
f 37/17/3 38/17/3 34/17/3 33/17/3
f 35/17/6 39/17/6 37/17/6 33/17/6
f 40/17/1 36/17/1 34/17/1 38/17/1
f 213/7/3 4/6/3 212/15/3 208/11/3
f 211/18/2 210/4/2 205/2/2 206/19/2
f 203/7/6 204/7/6 201/8/6 202/8/6
f 42/20/5 41/20/5 45/20/5 46/20/5
f 43/20/4 44/20/4 224/20/4 221/20/4
f 51/20/4 55/20/4 54/20/4 52/20/4
f 49/20/5 217/20/5 220/20/5 50/20/5
f 226/20/6 225/20/6 53/20/6 56/20/6
f 46/20/6 45/20/6 54/20/6 55/20/6
f 45/20/3 41/20/3 52/20/3 54/20/3
f 41/20/1 42/20/1 51/20/1 52/20/1
f 227/20/3 230/20/3 217/20/3 49/20/3
f 42/20/2 46/20/2 55/20/2 51/20/2
f 225/20/2 231/20/2 219/20/2 53/20/2
f 228/20/1 227/20/1 49/20/1 50/20/1
f 63/17/1 64/17/1 61/17/1 62/17/1
f 60/17/4 59/17/4 64/17/4 63/17/4
f 60/17/6 58/17/6 57/17/6 59/17/6
f 58/17/2 60/17/2 63/17/2 62/17/2
f 57/17/5 58/17/5 62/17/5 61/17/5
f 59/17/3 57/17/3 61/17/3 64/17/3
f 65/17/1 66/17/1 71/17/1 72/17/1
f 68/17/1 67/17/1 69/17/1 70/17/1
f 76/17/6 80/17/6 79/17/6 75/17/6
f 74/17/6 78/17/6 77/17/6 73/17/6
f 71/17/4 79/17/4 80/17/4 72/17/4
f 65/17/5 76/17/5 75/17/5 66/17/5
f 67/17/3 73/17/3 77/17/3 69/17/3
f 72/17/3 80/17/3 76/17/3 65/17/3
f 69/17/5 77/17/5 78/17/5 70/17/5
f 68/17/4 74/17/4 73/17/4 67/17/4
f 70/17/2 78/17/2 74/17/2 68/17/2
f 66/17/2 75/17/2 79/17/2 71/17/2
f 81/17/1 82/17/1 87/17/1 88/17/1
f 84/17/1 83/17/1 85/17/1 86/17/1
f 92/17/6 96/17/6 95/17/6 91/17/6
f 90/17/6 94/17/6 93/17/6 89/17/6
f 87/17/4 95/17/4 96/17/4 88/17/4
f 81/17/5 92/17/5 91/17/5 82/17/5
f 83/17/3 89/17/3 93/17/3 85/17/3
f 88/17/3 96/17/3 92/17/3 81/17/3
f 85/17/5 93/17/5 94/17/5 86/17/5
f 84/17/4 90/17/4 89/17/4 83/17/4
f 86/17/2 94/17/2 90/17/2 84/17/2
f 82/17/2 91/17/2 95/17/2 87/17/2
f 97/17/1 98/17/1 103/17/1 104/17/1
f 100/17/1 99/17/1 101/17/1 102/17/1
f 108/17/6 112/17/6 111/17/6 107/17/6
f 106/17/6 110/17/6 109/17/6 105/17/6
f 103/17/4 111/17/4 112/17/4 104/17/4
f 97/17/5 108/17/5 107/17/5 98/17/5
f 99/17/3 105/17/3 109/17/3 101/17/3
f 104/17/3 112/17/3 108/17/3 97/17/3
f 101/17/5 109/17/5 110/17/5 102/17/5
f 100/17/4 106/17/4 105/17/4 99/17/4
f 102/17/2 110/17/2 106/17/2 100/17/2
f 98/17/2 107/17/2 111/17/2 103/17/2
f 113/17/1 114/17/1 119/17/1 120/17/1
f 116/17/1 115/17/1 117/17/1 118/17/1
f 124/17/6 128/17/6 127/17/6 123/17/6
f 122/17/6 126/17/6 125/17/6 121/17/6
f 119/17/4 127/17/4 128/17/4 120/17/4
f 113/17/5 124/17/5 123/17/5 114/17/5
f 115/17/3 121/17/3 125/17/3 117/17/3
f 120/17/3 128/17/3 124/17/3 113/17/3
f 117/17/5 125/17/5 126/17/5 118/17/5
f 116/17/4 122/17/4 121/17/4 115/17/4
f 118/17/2 126/17/2 122/17/2 116/17/2
f 114/17/2 123/17/2 127/17/2 119/17/2
f 131/20/7 129/20/7 130/20/7 132/20/7
f 135/20/8 136/20/8 134/20/8 133/20/8
f 138/20/9 140/20/9 139/20/9 137/20/9
f 141/20/10 142/20/10 143/20/10 144/20/10
f 135/20/5 133/20/5 142/20/5 141/20/5
f 130/20/11 129/20/11 137/20/11 139/20/11
f 129/20/5 131/20/5 138/20/5 137/20/5
f 136/20/12 135/20/12 141/20/12 144/20/12
f 134/20/4 136/20/4 144/20/4 143/20/4
f 131/20/13 132/20/13 140/20/13 138/20/13
f 132/20/4 130/20/4 139/20/4 140/20/4
f 133/20/14 134/20/14 143/20/14 142/20/14
f 147/20/15 145/20/15 146/20/15 148/20/15
f 150/20/16 152/20/16 151/20/16 149/20/16
f 147/20/17 148/20/17 152/20/17 150/20/17
f 145/20/3 147/20/3 150/20/3 149/20/3
f 146/20/18 145/20/18 149/20/18 151/20/18
f 148/20/2 146/20/2 151/20/2 152/20/2
f 155/20/19 156/20/19 154/20/19 153/20/19
f 158/20/20 157/20/20 159/20/20 160/20/20
f 154/20/2 156/20/2 160/20/2 159/20/2
f 156/20/21 155/20/21 158/20/21 160/20/21
f 155/20/3 153/20/3 157/20/3 158/20/3
f 153/20/22 154/20/22 159/20/22 157/20/22
f 171/20/5 172/20/5 180/20/5 179/20/5
f 172/20/23 171/20/23 170/20/23 169/20/23
f 163/20/24 161/20/24 165/20/24 167/20/24
f 172/20/24 169/20/24 177/20/24 180/20/24
f 162/20/25 164/20/25 168/20/25 166/20/25
f 169/20/4 170/20/4 178/20/4 177/20/4
f 174/20/4 175/20/4 182/20/4 181/20/4
f 174/20/6 173/20/6 176/20/6 175/20/6
f 170/20/25 171/20/25 179/20/25 178/20/25
f 181/20/26 182/20/26 184/20/26 183/20/26
f 163/20/4 167/20/4 168/20/4 164/20/4
f 162/20/5 166/20/5 165/20/5 161/20/5
f 168/20/23 167/20/23 165/20/23 166/20/23
f 162/20/27 161/20/27 163/20/27 164/20/27
f 180/20/27 177/20/27 178/20/27 179/20/27
f 173/20/2 174/20/2 181/20/2 183/20/2
f 175/20/3 176/20/3 184/20/3 182/20/3
f 176/20/5 173/20/5 183/20/5 184/20/5
f 186/20/4 187/20/4 190/20/4 189/20/4
f 186/20/6 185/20/6 188/20/6 187/20/6
f 189/20/26 190/20/26 192/20/26 191/20/26
f 185/20/2 186/20/2 189/20/2 191/20/2
f 187/20/3 188/20/3 192/20/3 190/20/3
f 188/20/5 185/20/5 191/20/5 192/20/5
f 194/20/4 195/20/4 198/20/4 197/20/4
f 194/20/6 193/20/6 196/20/6 195/20/6
f 197/20/26 198/20/26 200/20/26 199/20/26
f 193/20/2 194/20/2 197/20/2 199/20/2
f 195/20/3 196/20/3 200/20/3 198/20/3
f 196/20/5 193/20/5 199/20/5 200/20/5
f 201/21/5 211/16/5 209/16/5 202/21/5
f 2/3/2 3/9/2 215/10/2 214/1/2
f 209/16/5 211/16/5 206/12/5 207/12/5
f 203/22/3 202/21/3 209/16/3 212/15/3
f 210/4/4 204/7/4 203/7/4 212/4/4
f 211/18/2 201/8/2 204/7/2 210/4/2
f 208/2/1 207/19/1 206/19/1 205/2/1
f 216/10/1 213/1/1 214/1/1 215/10/1
f 220/20/2 232/20/2 228/20/2 50/20/2
f 221/20/4 224/20/4 223/20/4 222/20/4
f 222/20/4 223/20/4 47/20/4 48/20/4
f 239/20/3 221/20/3 222/20/3 235/20/3
f 235/20/3 222/20/3 48/20/3 233/20/3
f 220/20/5 217/20/5 218/20/5 219/20/5
f 219/20/5 218/20/5 56/20/5 53/20/5
f 236/20/2 223/20/2 224/20/2 240/20/2
f 240/20/2 224/20/2 44/20/2 238/20/2
f 219/20/2 231/20/2 232/20/2 220/20/2
f 218/20/3 229/20/3 226/20/3 56/20/3
f 217/20/3 230/20/3 229/20/3 218/20/3
f 238/20/1 234/20/1 227/20/1 228/20/1
f 237/20/2 236/20/2 231/20/2 225/20/2
f 234/20/3 239/20/3 230/20/3 227/20/3
f 233/20/6 237/20/6 225/20/6 226/20/6
f 48/20/6 47/20/6 237/20/6 233/20/6
f 43/20/3 221/20/3 239/20/3 234/20/3
f 47/20/2 223/20/2 236/20/2 237/20/2
f 44/20/1 43/20/1 234/20/1 238/20/1
f 232/20/2 240/20/2 238/20/2 228/20/2
f 235/20/5 236/20/5 240/20/5 239/20/5
f 229/20/3 235/20/3 233/20/3 226/20/3
f 229/20/1 231/20/1 236/20/1 235/20/1
f 239/20/6 240/20/6 232/20/6 230/20/6
f 230/20/4 232/20/4 231/20/4 229/20/4
f 243/17/2 247/17/2 245/17/2 241/17/2
f 242/17/2 246/17/2 248/17/2 244/17/2
f 244/17/2 248/17/2 247/17/2 243/17/2
f 242/17/2 241/17/2 245/17/2 246/17/2
f 252/17/3 251/17/3 255/17/3 256/17/3
f 250/17/3 249/17/3 253/17/3 254/17/3
f 249/17/3 252/17/3 256/17/3 253/17/3
f 250/17/3 254/17/3 255/17/3 251/17/3
f 246/17/6 254/17/6 253/17/6 248/17/6
f 241/17/6 251/17/6 252/17/6 243/17/6
f 244/17/1 249/17/1 250/17/1 242/17/1
f 248/17/5 253/17/5 256/17/5 247/17/5
f 245/17/4 255/17/4 254/17/4 246/17/4
f 243/17/4 252/17/4 249/17/4 244/17/4
f 242/17/5 250/17/5 251/17/5 241/17/5
f 247/17/1 256/17/1 255/17/1 245/17/1
f 257/17/1 260/17/1 259/17/1 258/17/1
f 259/17/2 260/17/2 264/17/2 263/17/2
f 258/17/3 261/17/3 262/17/3 257/17/3
f 261/17/6 263/17/6 264/17/6 262/17/6
f 258/17/4 259/17/4 263/17/4 261/17/4
f 262/17/5 264/17/5 260/17/5 257/17/5
f 267/17/5 268/17/5 266/17/5 265/17/5
f 272/17/4 270/17/4 269/17/4 271/17/4
f 265/17/3 270/17/3 272/17/3 267/17/3
f 266/17/1 269/17/1 270/17/1 265/17/1
f 267/17/6 272/17/6 271/17/6 268/17/6
f 268/17/2 271/17/2 269/17/2 266/17/2
f 273/17/5 275/17/5 276/17/5 274/17/5
f 279/17/4 278/17/4 277/17/4 280/17/4
f 273/17/1 274/17/1 278/17/1 279/17/1
f 275/17/3 273/17/3 279/17/3 280/17/3
f 274/17/2 276/17/2 277/17/2 278/17/2
f 276/17/6 275/17/6 280/17/6 277/17/6
